<?xml version="1.0" encoding="utf-8"?>
<!-- Generator: Adobe Illustrator 22.0.1, SVG Export Plug-In . SVG Version: 6.00 Build 0)  -->
<svg version="1.1" id="Layer_1" xmlns="http://www.w3.org/2000/svg" xmlns:xlink="http://www.w3.org/1999/xlink" x="0px" y="0px"
	 viewBox="0 0 32 19.9" style="enable-background:new 0 0 32 19.9;" xml:space="preserve">
<style type="text/css">
	.st0{fill:#335AA4;}
</style>
<rect x="12.4" y="8.9" class="st0" width="2.1" height="5.6"/>
<path class="st0" d="M28.4,3.2L24.1,0l0,0v0h-3.3c-0.2,0-0.3,0.1-0.4,0.1l-4.1,3.4c-0.2,0.2-0.6,0.2-0.8,0l-4.1-3.4
	C11.3,0,11.2,0,11,0H7.9v0l0,0L3.6,3.2c-0.2,0.2-0.3,0.5,0,0.7l4.1,3.7l0.2-0.1v12c0,0.3,0.3,0.5,0.6,0.5h15c0.3,0,0.6-0.2,0.6-0.5
	v-12l0.2,0.1l4.1-3.7C28.6,3.7,28.6,3.4,28.4,3.2z M16.7,15.6l-1.1,1.1h-4.3l-1.1-1.1V7.8l1.1-1.1h4.3l1.1,1.1
	C16.7,7.8,16.7,15.6,16.7,15.6z M21.8,16.7h-4.5v-2.2h1.1V8.9h-1.1V6.7h3.4v7.8h1.1C21.8,14.5,21.8,16.7,21.8,16.7z"/>
<path class="st0" d="M31.9,5.9l-2.1-1.6c-0.1-0.1-0.3-0.1-0.4,0l-4,3.7c-0.1,0.1-0.1,0.4,0,0.5l2,1.6c0.1,0.1,0.3,0.1,0.5,0l4-3.7
	C32,6.3,32,6.1,31.9,5.9z"/>
<path class="st0" d="M2.6,4.6c-0.1-0.1-0.3-0.1-0.4,0L0.1,6.1C0,6.2,0,6.5,0.1,6.6l4,3.7c0.1,0.1,0.3,0.1,0.4,0l2-1.6
	c0.2-0.1,0.2-0.4,0-0.5L2.6,4.6z"/>
</svg>
