<?xml version="1.0" encoding="utf-8"?>
<!-- Generator: Adobe Illustrator 27.0.0, SVG Export Plug-In . SVG Version: 6.00 Build 0)  -->
<svg version="1.1" xmlns="http://www.w3.org/2000/svg" xmlns:xlink="http://www.w3.org/1999/xlink" x="0px" y="0px"
	 viewBox="0 0 475 163" style="enable-background:new 0 0 475 163;" xml:space="preserve">
<style type="text/css">
	.st0{display:none;}
	.st1{display:inline;}
	.st2{fill:#FFFFFF;}
	.st3{fill:#F3B640;}
</style>
<g id="Layer_2" class="st0">
	<rect x="-135" y="-254" class="st1" width="736" height="661"/>
</g>
<g id="Capa_1">
	<path class="st2" d="M36.4,21.6h53c23,0,32.8,12.2,28.2,27.4C113,64.1,95.7,76.7,72.7,76.7H62l-8.6,28.5H33.5l16.7-55.3
		c5.6-2.5,22-9.6,22.9-10l-6.4,21.2h10.7c9.2,0,20.6-3.9,23.1-12.1c2.1-6.8-4.6-11.9-15.9-11.9H54.1L36.4,21.6L36.4,21.6z"/>
	<path class="st2" d="M101,87.8l20-66.1h19.4L123.3,78L101,87.8L101,87.8z M95.8,105.2l4.8-15.7h54.2l-4.8,15.7H95.8z"/>
	<g>
		<path class="st2" d="M201.2,105.2h22.2l-1.3-5.7c-7.2,0.4-14.4,0.9-21.6,1.5L201.2,105.2L201.2,105.2z"/>
		<path class="st2" d="M150,105.2l14.9-19h33l2.1,12c7.1-0.6,14.2-1.1,21.4-1.5l-16.8-74.9h-7.1l-30.2,36.4l11.5,10l13-16.8
			l3.3,19.2h-38.1l-30.1,33.6l13.8,0.1C143.9,103.7,146.6,105.2,150,105.2L150,105.2z"/>
	</g>
	<g>
		<path class="st2" d="M245.4,98.4c-6.6,0.2-13.2,0.5-19.8,0.9l-1.8,5.9h19.5L245.4,98.4L245.4,98.4z"/>
		<polygon class="st2" points="249.6,51.4 238.1,21.6 215.1,21.6 230.8,58.9 		"/>
		<path class="st2" d="M234.9,68.7l-8.4,27.6c6.5-0.4,13.1-0.6,19.8-0.8l8.1-26.8l48.6-47.1h-22.6L234.9,68.7L234.9,68.7L234.9,68.7
			z"/>
	</g>
	<g>
		<path class="st3" d="M291.3,98c6.6,4.6,15.6,7.3,26.3,7.3c9.1,0,18-1.6,27.6-5.5C327.3,98.8,309.3,98.2,291.3,98L291.3,98z"/>
		<path class="st3" d="M287.6,94.9c19.3,0.1,39.2,0.8,60.2,2l5.5-18.1c-11.6,8.1-21,10.7-31,10.7c-16.1,0-26-11-21.4-26.1
			c4.1-13.6,19.8-26,37.3-26c10.1,0,18.7,4.2,24.3,11l6.2-20.5c-7.2-4.1-15.8-6.1-25.8-6.1c-28.5,0-54.9,18.4-61.9,41.7
			C277.1,76.5,279.9,87.5,287.6,94.9L287.6,94.9z"/>
	</g>
	<g>
		<path class="st3" d="M398.4,105.2h13.4c-4.8-0.6-9.3-1.1-13.8-1.5L398.4,105.2L398.4,105.2z"/>
		<path class="st3" d="M409.4,21.6h-29.6L375,37.2h29.5c10.8,0,14.4,5,12.4,11.5c-1.9,6.4-8.6,11.8-19.5,11.8h-9.8l6.4-21.2
			c-0.5,0.3-4.8,2.1-9.5,4.2l-7.3,3.2c-2.4,1.1-4.4,1.9-5.9,2.5l-14.6,48.3c5.9,0.4,11.8,0.8,17.9,1.2c0.5,0,1,0.1,1.5,0.1l7.3-24.1
			h7l6.8,25.9c7.3,0.7,14.6,1.6,23.2,2.7l1.1,0.1l-12.1-31c15-4.3,24.5-13.5,27.8-24.2C441.4,34.3,433.1,21.6,409.4,21.6L409.4,21.6
			z"/>
		<path class="st3" d="M355.9,100.4l-1.5,4.9h19.8l1.1-3.6c-0.3,0-0.5,0-0.8-0.1C368.2,101.1,362,100.7,355.9,100.4L355.9,100.4z"/>
	</g>
	<path class="st2" d="M395.3,122.4c-20-3.4-39.3-5-72.1-8c-65.8-5.8-132.4-6.8-198,1.9c-32.8,4.5-65.5,11.6-96.6,23
		c22.8-9.7,47.1-17.4,71.3-23c89.8-20.5,182.9-21.4,274.4-14.8c16.8,1.4,28.8,2.4,45.6,4.7l-14.2,17.3L395.3,122.4L395.3,122.4z"/>
</g>
</svg>
